# xmcd
#
# Track frame offsets: 
#        150
#        4500
#        21018
#        38718
#        56005
#        74680
#        89023
#        110754
#        128247
#        144034
#        163346
#
# Disc length: 2465 seconds
#
# Revision: 0
# Processed by: cddbd v1.5.2PL0 Copyright (c) Steve Scherf et al.
# Submitted via: ExactAudioCopy v1.3
#
DISCID=96099f0b
DTITLE=Dario Lombardo and the Blues Gang - War Devil's Blues
DYEAR=2019
DGENRE=Blues
TTITLE0=Intro
TTITLE1=Searchin' for Gold
TTITLE2=Bring Back Your Love
TTITLE3=Froglicker Blues
TTITLE4=Bad Times Come
TTITLE5=Ooh Pooh Poh Doo
TTITLE6=Come on Please
TTITLE7=War Devil's Blues
TTITLE8=Strange Earrings Woman
TTITLE9=Oh Darling
TTITLE10=I Was Dreaming
EXTD=
EXTT0=
EXTT1=
EXTT2=
EXTT3=
EXTT4=
EXTT5=
EXTT6=
EXTT7=
EXTT8=
EXTT9=
EXTT10=
PLAYORDER=
